<?xml version="1.0" encoding="UTF-8" standalone="no"?>
<!-- Generator: Adobe Illustrator 15.0.0, SVG Export Plug-In . SVG Version: 6.00 Build 0)  -->

<svg
   xmlns:dc="http://purl.org/dc/elements/1.1/"
   xmlns:cc="http://creativecommons.org/ns#"
   xmlns:rdf="http://www.w3.org/1999/02/22-rdf-syntax-ns#"
   xmlns:svg="http://www.w3.org/2000/svg"
   xmlns="http://www.w3.org/2000/svg"
   xmlns:sodipodi="http://sodipodi.sourceforge.net/DTD/sodipodi-0.dtd"
   xmlns:inkscape="http://www.inkscape.org/namespaces/inkscape"
   version="1.1"
   x="0px"
   y="0px"
   width="27px"
   height="23px"
   viewBox="0 0 27 23"
   enable-background="new 0 0 27 23"
   xml:space="preserve"
   id="svg4224"
   sodipodi:docname="checkbox-on2.svg"
   inkscape:version="0.92.1 r15371"><metadata
     id="metadata4230"><rdf:RDF><cc:Work
         rdf:about=""><dc:format>image/svg+xml</dc:format><dc:type
           rdf:resource="http://purl.org/dc/dcmitype/StillImage" /><dc:title></dc:title></cc:Work></rdf:RDF></metadata><defs
     id="defs4228" /><sodipodi:namedview
     pagecolor="#ffffff"
     bordercolor="#666666"
     borderopacity="1"
     objecttolerance="10"
     gridtolerance="10"
     guidetolerance="10"
     inkscape:pageopacity="0"
     inkscape:pageshadow="2"
     inkscape:window-width="1920"
     inkscape:window-height="986"
     id="namedview4226"
     showgrid="false"
     inkscape:measure-start="-45.9025,30.6017"
     inkscape:measure-end="-45.9025,33.6229"
     inkscape:zoom="10.26087"
     inkscape:cx="18.165412"
     inkscape:cy="11.5"
     inkscape:window-x="-11"
     inkscape:window-y="-11"
     inkscape:window-maximized="1"
     inkscape:current-layer="Layer_2" /><g
     id="Layer_1" /><g
     id="Layer_2"
     transform="translate(0.29237288,0.09745763)"><path
       id="polygon4217"
       transform="translate(-0.29237288,-0.09745763)"
       d="m 41.185547,-19.578125 c -0.03539,0.03626 -0.07016,0.07305 -0.105469,0.109375 0.03236,-0.01741 0.07785,-0.04075 0.115234,-0.06055 -0.0031,-0.01633 -0.0072,-0.03249 -0.0098,-0.04883 z m 0.208984,1.986328 c -0.0011,9.14e-4 -0.0029,0.001 -0.0039,0.002 2.66e-4,0.0069 -0.01545,0.06435 -0.0098,0.04883 0.006,-0.01628 0.0086,-0.03416 0.01367,-0.05078 z m 3.740235,3.126953 c -0.104175,0.04549 -0.204287,0.09934 -0.308594,0.144532 -0.0493,0.04242 -0.20909,0.175767 -0.304688,0.257812 0.215174,-0.139415 0.451618,-0.298895 0.613282,-0.402344 z" /><rect
       style="opacity:0.3;fill:#000000;fill-opacity:1;stroke-width:1.07151675"
       id="rect4284"
       width="13.838985"
       height="3.0211873"
       x="-60.033901"
       y="-10.72034"
       ry="0" /><path
       style="opacity:0.3;fill:#000000;fill-opacity:1;stroke-width:0.09745762"
       d="m -59.671186,-9.1025424 v -1.4618646 h 6.870762 6.870763 v 1.4618646 1.4618644 h -6.870763 -6.870762 z"
       id="path4286"
       inkscape:connector-curvature="0"
       transform="translate(-0.29237288,-0.09745763)" /><path
       style="opacity:0.3;fill:#000000;fill-opacity:1;stroke-width:0.09745762"
       d="m -59.671186,-9.1025424 v -1.4618646 h 6.870762 6.870763 v 1.4618646 1.4618644 h -6.870763 -6.870762 z"
       id="path4288"
       inkscape:connector-curvature="0"
       transform="translate(-0.29237288,-0.09745763)" /><path
       style="opacity:0.3;fill:#000000;fill-opacity:1;stroke-width:0.09745762"
       d="m -59.671186,-9.1025424 v -1.4618646 h 6.870762 6.870763 v 1.4618646 1.4618644 h -6.870763 -6.870762 z"
       id="path4290"
       inkscape:connector-curvature="0"
       transform="translate(-0.29237288,-0.09745763)" /><path
       style="opacity:0.3;fill:#000000;fill-opacity:1;stroke-width:0.09745762"
       d="m -59.671186,-9.1025424 v -1.4618646 h 6.870762 6.870763 v 1.4618646 1.4618644 h -6.870763 -6.870762 z"
       id="path4292"
       inkscape:connector-curvature="0"
       transform="translate(-0.29237288,-0.09745763)" /><path
       style="opacity:0.3;fill:#000000;fill-opacity:1;stroke-width:0.09745762"
       d="m -56.333263,-7.616274 c 1.916261,-0.014776 5.05196,-0.014776 6.968221,0 1.91626,0.014776 0.348411,0.026866 -3.484111,0.026866 -3.832521,0 -5.40037,-0.01209 -3.48411,-0.026866 z"
       id="path4294"
       inkscape:connector-curvature="0"
       transform="translate(-0.29237288,-0.09745763)" /><path
       style="opacity:0.3;fill:#000000;fill-opacity:1;stroke-width:0.09745762"
       d="m -59.671186,-9.1025424 v -1.4618646 h 6.870762 6.870763 v 1.4618646 1.4618644 h -6.870763 -6.870762 z"
       id="path4296"
       inkscape:connector-curvature="0"
       transform="translate(-0.29237288,-0.09745763)" /><path
       style="opacity:0.3;fill:#000000;fill-opacity:1;stroke-width:0.09745762"
       d="m -59.671186,-9.1025424 v -1.4618646 h 6.870762 6.870763 v 1.4618646 1.4618644 h -6.870763 -6.870762 z"
       id="path4298"
       inkscape:connector-curvature="0"
       transform="translate(-0.29237288,-0.09745763)" /><path
       style="opacity:0.3;fill:#000000;fill-opacity:1;stroke-width:0.09745762"
       d="m -59.671186,-9.1025424 v -1.4618646 h 6.870762 6.870763 v 1.4618646 1.4618644 h -6.870763 -6.870762 z"
       id="path4300"
       inkscape:connector-curvature="0"
       transform="translate(-0.29237288,-0.09745763)" /><path
       style="opacity:0.3;fill:#000000;fill-opacity:1;stroke-width:0.09745762"
       d="m -59.671186,-9.1025424 v -1.4618646 h 6.870762 6.870763 v 1.4618646 1.4618644 h -6.870763 -6.870762 z"
       id="path4302"
       inkscape:connector-curvature="0"
       transform="translate(-0.29237288,-0.09745763)" /><path
       style="opacity:0.3;fill:#000000;fill-opacity:1;stroke-width:0.09745762"
       d="m -59.671186,-9.1025424 v -1.4618646 h 6.870762 6.870763 v 1.4618646 1.4618644 h -6.870763 -6.870762 z"
       id="path4304"
       inkscape:connector-curvature="0"
       transform="translate(-0.29237288,-0.09745763)" /><path
       style="opacity:0.3;fill:#000000;fill-opacity:1;stroke-width:0.09745762"
       d="m -59.671186,-9.1025424 v -1.4618646 h 6.870762 6.870763 v 1.4618646 1.4618644 h -6.870763 -6.870762 z"
       id="path4306"
       inkscape:connector-curvature="0"
       transform="translate(-0.29237288,-0.09745763)" /><path
       style="opacity:0.3;fill:#000000;fill-opacity:1;stroke-width:0.09745762"
       d="m -59.671186,-9.1025424 v -1.4618646 h 6.870762 6.870763 v 1.4618646 1.4618644 h -6.870763 -6.870762 z"
       id="path4308"
       inkscape:connector-curvature="0"
       transform="translate(-0.29237288,-0.09745763)" /><path
       style="opacity:0.3;fill:#000000;fill-opacity:1;stroke-width:0.09745762"
       d="m -59.671186,-9.1025424 v -1.4618646 h 6.870762 6.870763 v 1.4618646 1.4618644 h -6.870763 -6.870762 z"
       id="path4310"
       inkscape:connector-curvature="0"
       transform="translate(-0.29237288,-0.09745763)" /><path
       style="opacity:0.3;fill:#000000;fill-opacity:1;stroke-width:0.09745762"
       d="m -59.671186,-9.1025424 v -1.4618646 h 6.870762 6.870763 v 1.4618646 1.4618644 h -6.870763 -6.870762 z"
       id="path4312"
       inkscape:connector-curvature="0"
       transform="translate(-0.29237288,-0.09745763)" /><path
       style="opacity:0.3;fill:#000000;fill-opacity:1;stroke-width:0.09745762"
       d="m -59.671186,-9.1025424 v -1.4618646 h 6.870762 6.870763 v 1.4618646 1.4618644 h -6.870763 -6.870762 z"
       id="path4314"
       inkscape:connector-curvature="0"
       transform="translate(-0.29237288,-0.09745763)" /><path
       style="opacity:0.3;fill:#000000;fill-opacity:1;stroke-width:0.09745762"
       d="m -59.671186,-9.1025424 v -1.4618646 h 6.870762 6.870763 v 1.4618646 1.4618644 h -6.870763 -6.870762 z"
       id="path4316"
       inkscape:connector-curvature="0"
       transform="translate(-0.29237288,-0.09745763)" /><path
       id="path4868"
       transform="translate(-0.29237288,-0.09745763)"
       style="opacity:1;fill:#7c9100;fill-opacity:1;stroke-width:0.08952879"
       d="m -31.496094,-4.171875 c -0.1123,0.018035 -0.173697,0.1853685 -0.269531,0.2402344 -0.0014,0.00347 -5.5e-4,0.00627 -0.002,0.00977 -0.02199,0.054715 -0.04443,0.1152732 -0.0918,0.1503906 -0.02358,0.017483 -0.05298,0.025895 -0.07813,0.041016 l 0.05469,0.085938 c 0.201516,-0.2115223 0.409562,-0.4095176 0.416015,-0.4160157 0.02684,-0.025946 0.05303,-0.052422 0.08008,-0.078125 -0.04006,-0.023014 -0.07859,-0.038146 -0.109375,-0.033203 z" /><path
       id="path4870"
       transform="translate(-0.29237288,-0.09745763)"
       style="opacity:1;fill:#7c9100;fill-opacity:1;stroke-width:0.09551241"
       d="m -27.396484,-2.5507812 c -0.0162,0.00601 -0.03316,0.010199 -0.04883,0.017578 -0.01313,0.00618 -0.02242,0.017919 -0.0332,0.027344 l 0.08203,0.068359 c -0.0064,-0.031696 8.75e-4,-0.075512 0,-0.1132812 z m 1.101562,1.0859374 c -0.02406,-5.391e-4 -0.04838,0.0095 -0.07227,0.00977 l 0.04883,0.052734 c 8.74e-4,-0.00378 0.001,-0.00592 0.002,-0.00977 0.0044,-0.018349 0.01532,-0.034917 0.02148,-0.052734 z" /><path
       id="rect8601"
       transform="translate(-0.29237288,-0.09745763)"
       style="opacity:1;fill:#22e9eb;fill-opacity:1;stroke:none;stroke-width:1.19713879;stroke-miterlimit:5.0999999;stroke-dasharray:none;stroke-opacity:1;paint-order:normal"
       d="m -9.2597656,16.068359 c -0.025688,0.02707 -0.050418,0.05505 -0.076172,0.08203 -0.018442,0.06133 -0.042319,0.1233 -0.072266,0.185547 0.04756,-0.06663 0.1001955,-0.139608 0.1542969,-0.21875 z m -17.5468754,17.91211 c -0.233204,0.232486 -0.258741,0.257438 -0.513671,0.511719 0.196667,-0.134417 0.413275,-0.262809 0.623046,-0.392579 -0.02198,-0.02682 -0.04354,-0.05078 -0.0625,-0.08008 -0.01668,-0.01236 -0.03133,-0.02571 -0.04687,-0.03906 z" /><g
       id="g8614"
       transform="translate(-34.207627,-16.957627)"><rect
         transform="matrix(0.69837541,-0.71573164,0.38921305,0.92114776,0,0)"
         y="56.921951"
         x="34.923294"
         height="8.4837809"
         width="11.597768"
         id="rect8610"
         style="opacity:1;fill:#eeeeee;fill-opacity:1;stroke:none;stroke-width:1.25914729;stroke-miterlimit:5.0999999;stroke-dasharray:none;stroke-opacity:1;paint-order:normal" /><path
         style="fill:#000000;fill-opacity:1;stroke:#e6e6ff;stroke-opacity:0;paint-order:normal"
         d="m 44.302559,32.125441 -4.954,-4.953001 -2.829,2.829 7.783,7.783002 13.932,-13.932002 -2.828,-2.828999 z"
         id="path4908"
         inkscape:connector-curvature="0" /></g></g></svg>