<svg xmlns="http://www.w3.org/2000/svg" width="27" height="23"><path d="M41.185547-19.578125c-.03539.03626-.07016.07305-.105469.109375.03236-.01741.07785-.04075.115234-.06055-.0031-.01633-.0072-.03249-.0098-.04883zm.208984 1.986328c-.0011.000914-.0029.001-.0039.002.000266.0069-.01545.06435-.0098.04883.006-.01628.0086-.03416.01367-.05078zm3.740235 3.126953c-.104175.04549-.204287.09934-.308594.144532-.0493.04242-.20909.175767-.304688.257812.215174-.139415.451618-.298895.613282-.402344z"/><path d="M-52.339844-7.6113281c-.0058.00356-.0118.00619-.01758.00977h.02539c-.0026-.00327-.0052-.00652-.0078-.00977z" opacity=".3"/><path d="M-52.339844-7.6113281c-.01031.00634-.02096.011175-.03125.017578.04109-.0000405.0046.0000441.04492 0-.0046-.00585-.0091-.01179-.01367-.017578z" opacity=".3"/><path fill="#7c9100" d="M-31.496094-4.171875c-.1123.018035-.173697.1853685-.269531.2402344-.0014.00347-.00055.00627-.002.00977-.02199.054715-.04443.1152732-.0918.1503906-.02358.017483-.05298.025895-.07813.041016l.05469.085938c.201516-.2115223.409562-.4095176.416015-.4160157.02684-.025946.05303-.052422.08008-.078125-.04006-.023014-.07859-.038146-.109375-.033203zm4.09961 1.6210938c-.0162.00601-.03316.010199-.04883.017578-.01313.00618-.02242.017919-.0332.027344l.08203.068359c-.0064-.031696.000875-.075512 0-.1132812zm1.101562 1.0859374c-.02406-.0005391-.04838.0095-.07227.00977l.04883.052734c.000874-.00378.001-.00592.002-.00977.0044-.018349.01532-.034917.02148-.052734z"/><path fill="#22e9eb" d="M-9.2597656 16.068359c-.025688.02707-.050418.05505-.076172.08203-.018442.06133-.042319.1233-.072266.185547.04756-.06663.1001955-.139608.1542969-.21875zm-17.5468754 17.91211c-.233204.232486-.258741.257438-.513671.511719.196667-.134417.413275-.262809.623046-.392579-.02198-.02682-.04354-.05078-.0625-.08008-.01668-.01236-.03133-.02571-.04687-.03906z"/><path fill="#eee" d="M12.6290818 10.5776518l8.09959599-8.30088951 3.30199824 7.81481577-8.09959598 8.30088951z"/><path d="M10.38730488 15.26527163l-4.954-4.953001-2.829 2.829 7.783 7.783002 13.932-13.932002-2.828-2.828999z"/></svg>