<?xml version="1.0" encoding="UTF-8" standalone="no"?>
<!-- Generator: Adobe Illustrator 15.0.0, SVG Export Plug-In . SVG Version: 6.00 Build 0)  -->

<svg
   xmlns:dc="http://purl.org/dc/elements/1.1/"
   xmlns:cc="http://creativecommons.org/ns#"
   xmlns:rdf="http://www.w3.org/1999/02/22-rdf-syntax-ns#"
   xmlns:svg="http://www.w3.org/2000/svg"
   xmlns="http://www.w3.org/2000/svg"
   xmlns:sodipodi="http://sodipodi.sourceforge.net/DTD/sodipodi-0.dtd"
   xmlns:inkscape="http://www.inkscape.org/namespaces/inkscape"
   version="1.1"
   id="Layer_1"
   x="0px"
   y="0px"
   width="12px"
   height="12px"
   viewBox="0 0 12 12"
   enable-background="new 0 0 12 12"
   xml:space="preserve"
   sodipodi:docname="cart3.svg"
   inkscape:version="0.92.1 r15371"><metadata
     id="metadata842"><rdf:RDF><cc:Work
         rdf:about=""><dc:format>image/svg+xml</dc:format><dc:type
           rdf:resource="http://purl.org/dc/dcmitype/StillImage" /><dc:title></dc:title></cc:Work></rdf:RDF></metadata><defs
     id="defs840" /><sodipodi:namedview
     pagecolor="#ffffff"
     bordercolor="#666666"
     borderopacity="1"
     objecttolerance="10"
     gridtolerance="10"
     guidetolerance="10"
     inkscape:pageopacity="0"
     inkscape:pageshadow="2"
     inkscape:window-width="1920"
     inkscape:window-height="986"
     id="namedview838"
     showgrid="false"
     inkscape:zoom="19.666667"
     inkscape:cx="-3.4576271"
     inkscape:cy="6"
     inkscape:window-x="-11"
     inkscape:window-y="-11"
     inkscape:window-maximized="1"
     inkscape:current-layer="Layer_1" /><g
     id="g835"
     style="fill:#000000;fill-opacity:1;opacity:0.3"><path
       d="M11.864,3.017c-0.082-0.098-0.203-0.154-0.327-0.154H9.225V4.09c0,0.563-0.484,1.022-1.08,1.022   c-0.594,0-1.078-0.458-1.078-1.022V2.863H4.909V4.09c0,0.563-0.485,1.022-1.08,1.022c-0.595,0-1.078-0.458-1.078-1.022V2.863H0.438   c-0.125,0-0.243,0.056-0.327,0.154C0.028,3.115-0.012,3.245,0.003,3.375l0.776,7.134c0.015,0.806,0.642,1.455,1.411,1.455h7.595   c0.77,0,1.396-0.649,1.411-1.455l0.776-7.134C11.987,3.245,11.946,3.115,11.864,3.017z"
       id="path831"
       style="fill:#000000;fill-opacity:1" /><path
       d="M3.829,4.499c0.239,0,0.433-0.184,0.433-0.409V1.84c0-0.632,0.672-1.022,1.295-1.022h1.079   c0.655,0,1.078,0.401,1.078,1.022v2.25c0,0.225,0.194,0.409,0.431,0.409c0.239,0,0.433-0.184,0.433-0.409V1.84   C8.577,0.773,7.761,0,6.636,0H5.557C4.367,0,3.398,0.826,3.398,1.84v2.25C3.398,4.315,3.592,4.499,3.829,4.499z"
       id="path833"
       style="fill:#000000;fill-opacity:1" /></g></svg>