<svg xmlns="http://www.w3.org/2000/svg" width="162" height="36"><path d="M13.237 1.025H-.20299994v33.6H13.237c9.264 0 16.32-7.296 16.32-16.8 0-9.504-7.056-16.8-16.32-16.8zm0 26.208H7.4770001V8.417H13.237c5.28 0 8.928 3.648 8.928 9.408s-3.648 9.408-8.928 9.408zm28.365 0v-5.952h12v-7.296h-12V8.417h13.2V1.025h-20.88v33.6h21.12v-7.392zm25.79025 7.392h9.792l10.944-33.6h-8.4l-7.44 24.72-7.44-24.72h-8.4zm23.6235-33.6v33.6h7.68v-33.6zM120.454 35.297c6.144 0 11.52-3.024 14.4-7.776l-6.624-3.84c-1.44 2.592-4.368 4.128-7.776 4.128-5.952 0-9.792-3.984-9.792-9.984s3.84-9.984 9.792-9.984c3.408 0 6.288 1.536 7.776 4.128l6.624-3.84c-2.928-4.752-8.304-7.776-14.4-7.776-10.128 0-17.472 7.584-17.472 17.472 0 9.888 7.344 17.472 17.472 17.472zm25.67925-8.064v-5.952h12v-7.296h-12V8.417h13.2V1.025h-20.88v33.6h21.12v-7.392z" aria-label="DEVICE" font-family="Gilroy" font-size="48" font-weight="800"/></svg>